<svg width="1021" height="731" viewBox="0 0 1021 731" fill="none" xmlns="http://www.w3.org/2000/svg">
<path d="M1114.58 417.338C1114.58 503.317 1052.44 581.316 951.633 637.865C850.85 694.4 711.567 729.391 557.676 729.391C403.786 729.391 264.503 694.4 163.719 637.865C62.9113 581.316 0.776366 503.317 0.776366 417.338C0.776366 331.359 62.9113 253.36 163.719 196.811C264.503 140.276 403.786 105.285 557.676 105.285C711.567 105.285 850.85 140.276 951.633 196.811C1052.44 253.36 1114.58 331.359 1114.58 417.338Z" stroke="url(#paint0_linear_1150_1963)" stroke-opacity="0.3" stroke-width="1.55273"/>
<path d="M929.435 518.133C929.435 569.961 892.862 617.082 833.297 651.305C773.76 685.511 691.441 706.7 600.459 706.7C509.476 706.7 427.158 685.511 367.621 651.305C308.056 617.082 271.483 569.961 271.483 518.133C271.483 466.304 308.056 419.183 367.621 384.961C427.158 350.755 509.476 329.565 600.459 329.565C691.441 329.565 773.76 350.755 833.297 384.961C892.862 419.183 929.435 466.304 929.435 518.133Z" fill="url(#paint1_radial_1150_1963)" stroke="url(#paint2_linear_1150_1963)" stroke-width="2.07031"/>
<ellipse cx="614.074" cy="589.536" rx="169.707" ry="95.1973" fill="url(#paint3_radial_1150_1963)" fill-opacity="0.3"/>
<g filter="url(#filter0_d_1150_1963)">
<path fill-rule="evenodd" clip-rule="evenodd" d="M614.072 684.734C732.916 684.734 829.258 632.997 829.258 569.176C829.258 505.355 732.916 453.618 614.072 453.618C495.228 453.618 398.885 505.355 398.885 569.176C398.885 632.997 495.228 684.734 614.072 684.734ZM614.072 684.733C707.799 684.733 783.779 642.112 783.779 589.536C783.779 536.96 707.799 494.338 614.072 494.338C520.346 494.338 444.366 536.96 444.366 589.536C444.366 642.112 520.346 684.733 614.072 684.733Z" fill="url(#paint4_radial_1150_1963)" fill-opacity="0.6" shape-rendering="crispEdges"/>
</g>
<g filter="url(#filter1_d_1150_1963)">
<path fill-rule="evenodd" clip-rule="evenodd" d="M614.073 695.036C783.829 695.036 921.444 617.84 921.444 522.615C921.444 427.389 783.829 350.194 614.073 350.194C444.316 350.194 306.701 427.389 306.701 522.615C306.701 617.84 444.316 695.036 614.073 695.036ZM614.072 684.732C732.916 684.732 829.258 632.995 829.258 569.174C829.258 505.354 732.916 453.616 614.072 453.616C495.227 453.616 398.885 505.354 398.885 569.174C398.885 632.995 495.227 684.732 614.072 684.732Z" fill="url(#paint5_radial_1150_1963)" shape-rendering="crispEdges"/>
</g>
<path fill-rule="evenodd" clip-rule="evenodd" d="M615.028 680.08C691.425 679.792 753.198 644.962 753.198 602.039C753.198 558.937 690.909 523.996 614.073 523.996C537.236 523.996 474.947 558.937 474.947 602.039C474.947 644.964 536.726 679.795 613.128 680.08C552.844 679.795 504.131 652.293 504.131 618.409C504.131 584.348 553.354 556.736 614.074 556.736C674.794 556.736 724.017 584.348 724.017 618.409C724.017 652.292 675.308 679.792 615.028 680.08Z" fill="url(#paint6_radial_1150_1963)"/>
<rect width="2.31088" height="2.31088" transform="matrix(0.707082 0.707131 -0.707082 0.707131 346.954 555.942)" fill="#00FFF0"/>
<rect x="371.523" y="602.022" width="4.67319" height="4.67319" transform="rotate(45 371.523 602.022)" fill="#00FFF0"/>
<rect width="2.1717" height="2.1717" transform="matrix(-0.707107 -0.707107 -0.707107 0.707107 457.041 605.327)" fill="#00FFF0"/>
<rect x="421.147" y="646.5" width="2.31088" height="2.31088" transform="rotate(45 421.147 646.5)" fill="#00FFF0"/>
<rect width="2.31088" height="2.31088" transform="matrix(0.707131 0.707082 -0.707131 0.707082 295.995 550.46)" fill="#00FFF0"/>
<rect width="2.31088" height="2.31088" transform="matrix(0.707131 0.707082 -0.707131 0.707082 308.34 472.576)" fill="#00FFF0" fill-opacity="0.5"/>
<rect x="343.683" y="518.041" width="1.61507" height="1.61507" transform="rotate(45 343.683 518.041)" fill="#00FFF0" fill-opacity="0.5"/>
<rect x="323.981" y="509.964" width="3.0132" height="3.0132" transform="rotate(45 323.981 509.964)" fill="#00FFF0" fill-opacity="0.5"/>
<rect x="239.439" y="249.723" width="2.73802" height="2.73802" transform="rotate(45 239.439 249.723)" fill="#0066FF" fill-opacity="0.3"/>
<rect x="268.51" y="304.251" width="5.52977" height="5.52977" transform="rotate(45 268.51 304.251)" fill="#0066FF" fill-opacity="0.3"/>
<rect width="2.57312" height="2.57312" transform="matrix(-0.707129 -0.707085 -0.707129 0.707085 369.703 308.161)" fill="#0066FF" fill-opacity="0.3"/>
<rect x="327.231" y="356.879" width="2.73802" height="2.73802" transform="rotate(45 327.231 356.879)" fill="#0066FF" fill-opacity="0.3"/>
<rect x="179.138" y="243.236" width="2.73802" height="2.73802" transform="rotate(45 179.138 243.236)" fill="#0066FF" fill-opacity="0.3"/>
<rect x="193.746" y="151.075" width="2.73802" height="2.73802" transform="rotate(45 193.746 151.075)" fill="#0500FF" fill-opacity="0.5"/>
<rect width="1.9111" height="1.9111" transform="matrix(0.707077 0.707136 -0.707077 0.707136 235.567 204.874)" fill="#0500FF" fill-opacity="0.5"/>
<rect x="212.256" y="195.318" width="3.56551" height="3.56551" transform="rotate(45 212.256 195.318)" fill="#0500FF" fill-opacity="0.5"/>
<rect x="87.3882" y="562.598" width="3.80692" height="3.80692" transform="rotate(45 87.3882 562.598)" fill="#0066FF" fill-opacity="0.3"/>
<rect width="7.68854" height="7.68854" transform="matrix(0.707114 0.707099 -0.707114 0.707099 127.807 638.412)" fill="#0066FF" fill-opacity="0.3"/>
<rect width="3.57764" height="3.57764" transform="matrix(-0.707107 -0.707107 -0.707107 0.707107 268.506 643.849)" fill="#0066FF" fill-opacity="0.3"/>
<rect width="3.80692" height="3.80692" transform="matrix(0.707122 0.707092 -0.707122 0.707092 209.453 711.588)" fill="#0066FF" fill-opacity="0.3"/>
<rect width="3.80692" height="3.80692" transform="matrix(0.707122 0.707092 -0.707122 0.707092 3.54492 553.578)" fill="#0066FF" fill-opacity="0.3"/>
<rect x="23.856" y="425.439" width="3.80692" height="3.80692" transform="rotate(45 23.856 425.439)" fill="#0500FF" fill-opacity="0.5"/>
<rect x="82.0046" y="500.241" width="2.66065" height="2.66065" transform="rotate(45 82.0046 500.241)" fill="#0500FF" fill-opacity="0.5"/>
<rect width="4.95745" height="4.95745" transform="matrix(0.707118 0.707095 -0.707118 0.707095 49.5916 486.954)" fill="#0500FF" fill-opacity="0.5"/>
<rect x="915.424" y="353.364" width="3.25833" height="3.25833" transform="rotate(-32.8977 915.424 353.364)" fill="#0066FF" fill-opacity="0.3"/>
<rect x="986.125" y="333.143" width="6.5806" height="6.58059" transform="rotate(-32.8977 986.125 333.143)" fill="#0066FF" fill-opacity="0.3"/>
<rect width="3.06209" height="3.06209" transform="matrix(-0.839642 0.54314 0.54314 0.839642 1015.92 216.371)" fill="#0066FF" fill-opacity="0.3"/>
<rect x="892.832" y="421.912" width="3.25833" height="3.25833" transform="rotate(-32.8977 892.832 421.912)" fill="#0066FF" fill-opacity="0.3"/>
<rect x="789.24" y="381.921" width="3.25833" height="3.25833" transform="rotate(-32.8977 789.24 381.921)" fill="#0500FF" fill-opacity="0.5"/>
<rect width="2.27427" height="2.27427" transform="matrix(0.839624 -0.543168 0.543113 0.83966 862.274 346.681)" fill="#0500FF" fill-opacity="0.5"/>
<rect width="4.24306" height="4.24306" transform="matrix(0.839652 -0.543126 0.543155 0.839632 845.337 371.421)" fill="#0500FF" fill-opacity="0.5"/>
<rect x="735.254" y="250.855" width="6.58059" height="6.5806" transform="rotate(9.69009 735.254 250.855)" fill="#0066FF" fill-opacity="0.3"/>
<rect width="3.06209" height="3.06209" transform="matrix(-0.985732 -0.168319 -0.168319 0.985733 836.216 185.047)" fill="#0066FF" fill-opacity="0.3"/>
<rect x="828.481" y="261.573" width="3.25833" height="3.25833" transform="rotate(9.69009 828.481 261.573)" fill="#0066FF" fill-opacity="0.3"/>
<rect x="606.499" y="253.077" width="3.25833" height="3.25833" transform="rotate(9.69009 606.499 253.077)" fill="#0066FF" fill-opacity="0.3"/>
<rect x="557.293" y="153.533" width="3.25833" height="3.25833" transform="rotate(9.69009 557.293 153.533)" fill="#0500FF" fill-opacity="0.5"/>
<rect width="2.27427" height="2.27427" transform="matrix(0.985735 0.168305 -0.168333 0.98573 634.911 177.01)" fill="#0500FF" fill-opacity="0.5"/>
<rect x="605.701" y="183.764" width="4.24306" height="4.24306" transform="rotate(9.69009 605.701 183.764)" fill="#0500FF" fill-opacity="0.5"/>
<defs>
<filter id="filter0_d_1150_1963" x="396.297" y="445.854" width="445.9" height="246.643" filterUnits="userSpaceOnUse" color-interpolation-filters="sRGB">
<feFlood flood-opacity="0" result="BackgroundImageFix"/>
<feColorMatrix in="SourceAlpha" type="matrix" values="0 0 0 0 0 0 0 0 0 0 0 0 0 0 0 0 0 0 127 0" result="hardAlpha"/>
<feOffset dx="5.17577"/>
<feGaussianBlur stdDeviation="3.88183"/>
<feComposite in2="hardAlpha" operator="out"/>
<feColorMatrix type="matrix" values="0 0 0 0 0.119531 0 0 0 0 0.163828 0 0 0 0 0.5625 0 0 0 0.1 0"/>
<feBlend mode="normal" in2="BackgroundImageFix" result="effect1_dropShadow_1150_1963"/>
<feBlend mode="normal" in="SourceGraphic" in2="effect1_dropShadow_1150_1963" result="shape"/>
</filter>
<filter id="filter1_d_1150_1963" x="304.113" y="341.913" width="630.271" height="360.369" filterUnits="userSpaceOnUse" color-interpolation-filters="sRGB">
<feFlood flood-opacity="0" result="BackgroundImageFix"/>
<feColorMatrix in="SourceAlpha" type="matrix" values="0 0 0 0 0 0 0 0 0 0 0 0 0 0 0 0 0 0 127 0" result="hardAlpha"/>
<feOffset dx="5.17577" dy="-0.517577"/>
<feGaussianBlur stdDeviation="3.88183"/>
<feComposite in2="hardAlpha" operator="out"/>
<feColorMatrix type="matrix" values="0 0 0 0 0.119531 0 0 0 0 0.163828 0 0 0 0 0.5625 0 0 0 0.1 0"/>
<feBlend mode="normal" in2="BackgroundImageFix" result="effect1_dropShadow_1150_1963"/>
<feBlend mode="normal" in="SourceGraphic" in2="effect1_dropShadow_1150_1963" result="shape"/>
</filter>
<linearGradient id="paint0_linear_1150_1963" x1="352.496" y1="947.048" x2="498.913" y2="239.7" gradientUnits="userSpaceOnUse">
<stop stop-color="white"/>
<stop offset="0.508554" stop-color="#30FFFF"/>
<stop offset="1" stop-color="white" stop-opacity="0"/>
</linearGradient>
<radialGradient id="paint1_radial_1150_1963" cx="0" cy="0" r="1" gradientUnits="userSpaceOnUse" gradientTransform="translate(281.018 692.733) rotate(-45.6853) scale(355.024 632.713)">
<stop stop-color="white"/>
<stop offset="0.462474" stop-color="#3A45AA"/>
<stop offset="1" stop-color="#3A45AA" stop-opacity="0"/>
</radialGradient>
<linearGradient id="paint2_linear_1150_1963" x1="432.558" y1="700.334" x2="602.648" y2="418.311" gradientUnits="userSpaceOnUse">
<stop stop-color="white"/>
<stop offset="0.442828" stop-color="#30FFFF"/>
<stop offset="1" stop-color="white" stop-opacity="0"/>
</linearGradient>
<radialGradient id="paint3_radial_1150_1963" cx="0" cy="0" r="1" gradientUnits="userSpaceOnUse" gradientTransform="translate(702.41 502.175) rotate(141.315) scale(246.834 440.027)">
<stop offset="0.39201" stop-color="#1B29A4" stop-opacity="0"/>
<stop offset="0.841913" stop-color="#2938BB" stop-opacity="0.5"/>
<stop offset="1" stop-color="#172075" stop-opacity="0.5"/>
</radialGradient>
<radialGradient id="paint4_radial_1150_1963" cx="0" cy="0" r="1" gradientUnits="userSpaceOnUse" gradientTransform="translate(726.082 463.131) rotate(141.571) scale(343.156 606.252)">
<stop offset="0.39201" stop-color="#6675FF" stop-opacity="0"/>
<stop offset="0.841913" stop-color="#6675FF" stop-opacity="0.5"/>
<stop offset="1" stop-color="#192059" stop-opacity="0"/>
</radialGradient>
<radialGradient id="paint5_radial_1150_1963" cx="0" cy="0" r="1" gradientUnits="userSpaceOnUse" gradientTransform="translate(774.067 364.388) rotate(140.348) scale(498.718 889.055)">
<stop offset="0.39201" stop-color="#6675FF" stop-opacity="0"/>
<stop offset="0.841913" stop-color="#6675FF" stop-opacity="0.5"/>
<stop offset="1" stop-color="#DBDEFF" stop-opacity="0"/>
</radialGradient>
<radialGradient id="paint6_radial_1150_1963" cx="0" cy="0" r="1" gradientUnits="userSpaceOnUse" gradientTransform="translate(686.491 530.421) rotate(141.315) scale(202.354 360.732)">
<stop offset="0.39201" stop-color="#17217A" stop-opacity="0"/>
<stop offset="0.841913" stop-color="#1A2374" stop-opacity="0.5"/>
<stop offset="1" stop-color="#151E6C" stop-opacity="0.5"/>
</radialGradient>
</defs>
</svg>
