<svg width="53" height="63" viewBox="0 0 53 63" fill="none" xmlns="http://www.w3.org/2000/svg">
<g filter="url(#filter0_dddd_1162_1617)">
<path d="M21 47.5304V12L24.4357 15.6564C24.4357 15.6564 21 18.3687 24.4357 29.2904C27.8714 40.212 21 49.4717 21 49.4717V47.5304Z" fill="url(#paint0_linear_1162_1617)"/>
<path d="M25.486 16.8044L37.7986 25.2376L35.146 26.3926C35.146 26.3926 31.0906 22.0529 30.1374 22.9621C29.1842 23.8714 25.1288 19.5316 25.1288 19.5316L25.486 16.8044Z" fill="url(#paint1_linear_1162_1617)"/>
<path d="M36.8368 28.6403L26.7351 33.5298L26.8996 31.2187C26.8996 31.2187 30.9298 31.2187 31.0088 29.2297C31.0878 27.2407 35.118 27.2407 35.118 27.2407L36.8368 28.6403Z" fill="url(#paint2_linear_1162_1617)"/>
<path d="M23.4927 6.43024L23.8494 1.26748L24.4068 1.30599L24.3656 1.90244L24.434 1.90717C24.4809 1.84491 24.5453 1.76586 24.6272 1.67C24.7109 1.57262 24.8264 1.4889 24.9737 1.41885C25.1228 1.34727 25.3195 1.31993 25.564 1.33682C25.8801 1.35867 26.1533 1.45696 26.3836 1.6317C26.6139 1.80644 26.7866 2.04353 26.9018 2.34295C27.017 2.64238 27.061 2.98928 27.0338 3.38366C27.0063 3.78129 26.9149 4.12129 26.7594 4.40366C26.6041 4.68439 26.4012 4.89633 26.1506 5.03949C25.9001 5.18101 25.6184 5.24096 25.3055 5.21934C25.0643 5.20268 24.874 5.14941 24.7345 5.05953C24.595 4.96803 24.4898 4.86824 24.4186 4.76017C24.3476 4.65046 24.2933 4.55993 24.2557 4.48855L24.2068 4.48517L24.0696 6.4701L23.4927 6.43024ZM24.2868 3.18403C24.2673 3.46759 24.2915 3.72062 24.3597 3.9431C24.4279 4.16396 24.5377 4.34102 24.6889 4.47428C24.8403 4.60591 25.0317 4.67972 25.2631 4.69571C25.5043 4.71237 25.7099 4.66272 25.8801 4.54676C26.0519 4.42927 26.1861 4.26498 26.2825 4.05386C26.3807 3.84123 26.4391 3.60128 26.4575 3.33402C26.4758 3.07001 26.4515 2.82927 26.3846 2.61178C26.3195 2.39278 26.2098 2.21572 26.0554 2.08061C25.9027 1.94398 25.7042 1.86721 25.4597 1.85032C25.225 1.83411 25.0237 1.87997 24.8558 1.9879C24.688 2.0942 24.556 2.25046 24.4599 2.45669C24.3639 2.66128 24.3062 2.90373 24.2868 3.18403Z" fill="white"/>
<path d="M29.3846 5.78976C29.052 5.72061 28.7765 5.58077 28.5583 5.37024C28.3418 5.16005 28.1927 4.89798 28.1111 4.58404C28.0311 4.27043 28.0307 3.9233 28.1098 3.54265C28.1896 3.15881 28.3288 2.8382 28.5275 2.58084C28.7277 2.32381 28.9691 2.14206 29.2515 2.03558C29.5355 1.92944 29.8438 1.91094 30.1765 1.98009C30.5092 2.04924 30.7838 2.18891 31.0004 2.39911C31.2186 2.60964 31.3675 2.8725 31.4471 3.18771C31.5284 3.50325 31.5291 3.85294 31.4493 4.23679C31.3702 4.61744 31.2307 4.93548 31.0307 5.19091C30.8324 5.44667 30.5913 5.62763 30.3072 5.73377C30.0248 5.84025 29.7173 5.85891 29.3846 5.78976ZM29.4903 5.28117C29.743 5.33369 29.9644 5.31213 30.1545 5.21649C30.3445 5.12086 30.5007 4.97562 30.623 4.7808C30.7452 4.58597 30.8319 4.36541 30.8831 4.11911C30.9343 3.87281 30.9428 3.63515 30.9087 3.40615C30.8745 3.17714 30.7895 2.98011 30.6536 2.81506C30.5178 2.65 30.3235 2.54121 30.0708 2.48868C29.8181 2.43616 29.5965 2.45851 29.4061 2.55575C29.2157 2.65299 29.0593 2.79982 28.9367 2.99625C28.8141 3.19267 28.7272 3.41404 28.676 3.66034C28.6248 3.90664 28.6165 4.14349 28.6509 4.3709C28.6854 4.5983 28.7708 4.79373 28.907 4.95719C29.0432 5.12065 29.2376 5.22864 29.4903 5.28117Z" fill="white"/>
<path d="M32.0532 6.37412L33.2307 2.7994L33.7614 2.97419L33.5835 3.51413L33.6207 3.52639C33.7442 3.37099 33.9094 3.26631 34.1163 3.21238C34.3233 3.15844 34.5338 3.16674 34.7479 3.23727C34.7882 3.25056 34.8384 3.26794 34.8984 3.28943C34.9584 3.31091 35.0034 3.32832 35.0334 3.34164L34.8494 3.90019C34.8323 3.8894 34.792 3.86837 34.7283 3.83708C34.6667 3.80475 34.5995 3.77658 34.5266 3.75256C34.3528 3.69531 34.1856 3.68066 34.0251 3.70861C33.8666 3.73551 33.7268 3.79955 33.6058 3.9007C33.4868 4.00082 33.4007 4.13156 33.3476 4.29292L32.6024 6.55505L32.0532 6.37412Z" fill="white"/>
<path d="M37.624 4.45294L37.4346 4.90494L35.6356 4.15129L35.825 3.69929L37.624 4.45294ZM36.6977 3.08726L37.2311 3.31071L35.845 6.61935C35.7819 6.77002 35.7564 6.89217 35.7685 6.98581C35.7828 7.07857 35.8192 7.15228 35.8778 7.20693C35.9385 7.2607 36.008 7.304 36.0864 7.33682C36.1451 7.36144 36.1946 7.37862 36.2348 7.38838C36.2756 7.39662 36.3083 7.40322 36.3328 7.40817L36.2405 7.93274C36.1987 7.93115 36.1425 7.92356 36.0721 7.90998C36.001 7.89791 35.9157 7.87104 35.8163 7.82938C35.6656 7.76626 35.5315 7.67201 35.414 7.54663C35.298 7.42187 35.2203 7.27332 35.181 7.10097C35.1431 6.92925 35.1664 6.74244 35.251 6.54055L36.6977 3.08726Z" fill="white"/>
<path d="M39.8428 5.56635L39.6209 6.00328L37.812 5.08445L38.0339 4.64752L39.8428 5.56635ZM36.8712 8.27833L38.811 4.45959C38.9086 4.26734 39.0351 4.13007 39.1905 4.04777C39.3459 3.96547 39.512 3.9289 39.6887 3.93806C39.8655 3.94722 40.034 3.99248 40.1942 4.07386C40.3209 4.13822 40.4191 4.20094 40.4888 4.26202C40.5586 4.3231 40.6087 4.37237 40.6391 4.40982L40.2642 4.78002C40.2424 4.75797 40.2116 4.72855 40.1716 4.69177C40.1331 4.65573 40.0767 4.61884 40.0025 4.58111C39.8321 4.49456 39.6872 4.47501 39.5678 4.52247C39.4499 4.57067 39.3487 4.67778 39.2644 4.84381L37.3868 8.54022L36.8712 8.27833Z" fill="white"/>
<path d="M40.0619 10.184C39.7769 9.99889 39.571 9.76867 39.444 9.49333C39.3184 9.21889 39.2745 8.9206 39.3124 8.59845C39.3516 8.27719 39.4771 7.95355 39.6889 7.62752C39.9025 7.29876 40.1486 7.05048 40.427 6.8827C40.7069 6.71581 40.9977 6.63397 41.2995 6.63718C41.6027 6.64128 41.8967 6.73588 42.1816 6.92099C42.4666 7.10609 42.6718 7.33586 42.7974 7.6103C42.9244 7.88564 42.9678 8.18462 42.9277 8.50725C42.889 8.83076 42.7628 9.1569 42.5492 9.48567C42.3374 9.8117 42.092 10.0575 41.8131 10.223C41.5355 10.3894 41.2451 10.4706 40.942 10.4665C40.6402 10.4632 40.3468 10.3691 40.0619 10.184ZM40.3449 9.74837C40.5613 9.88898 40.7754 9.94919 40.9872 9.929C41.199 9.90882 41.3972 9.83012 41.5818 9.6929C41.7664 9.55568 41.9272 9.3816 42.0643 9.17064C42.2013 8.95968 42.2955 8.7413 42.3467 8.51551C42.3979 8.28971 42.3902 8.07526 42.3234 7.87216C42.2567 7.66906 42.1151 7.49721 41.8986 7.3566C41.6822 7.21599 41.4676 7.15647 41.2549 7.17802C41.0422 7.19958 40.8432 7.27965 40.6577 7.41824C40.4722 7.55682 40.3109 7.73159 40.1739 7.94255C40.0368 8.15351 39.9431 8.3712 39.8928 8.59563C39.8424 8.82006 39.8511 9.03314 39.9187 9.23487C39.9864 9.4366 40.1284 9.60777 40.3449 9.74837Z" fill="white"/>
<path d="M45.8782 8.11158L42.7583 12.0421L42.3054 11.6826L45.4253 7.75206L45.8782 8.11158Z" fill="white"/>
<path d="M43.6373 12.7783L46.1341 9.96203L46.5668 10.3457L44.07 13.1619L43.6373 12.7783ZM46.7703 9.68772C46.686 9.61295 46.6387 9.51974 46.6285 9.40811C46.6195 9.29756 46.6508 9.20195 46.7224 9.12128C46.7939 9.0406 46.8851 8.99809 46.9959 8.99374C47.1079 8.99048 47.2061 9.02624 47.2905 9.10101C47.3748 9.17579 47.4215 9.26845 47.4304 9.379C47.4406 9.49063 47.4099 9.58679 47.3384 9.66746C47.2669 9.74813 47.1751 9.7901 47.063 9.79336C46.9522 9.79771 46.8546 9.7625 46.7703 9.68772Z" fill="white"/>
<path d="M45.9447 15.1157C45.7129 14.8673 45.5685 14.5942 45.5118 14.2964C45.4561 13.9998 45.4855 13.6997 45.5999 13.3962C45.7155 13.0939 45.9154 12.8101 46.1995 12.5448C46.4861 12.2772 46.7848 12.0956 47.0955 12C47.4073 11.9055 47.7093 11.8963 48.0014 11.9722C48.2947 12.0493 48.5572 12.2121 48.7891 12.4604C49.0209 12.7088 49.1647 12.9813 49.2204 13.2779C49.2772 13.5758 49.2472 13.8764 49.1304 14.1798C49.0148 14.4844 48.8137 14.7705 48.5271 15.038C48.2429 15.3033 47.9455 15.4827 47.6348 15.576C47.3253 15.6705 47.0239 15.6792 46.7307 15.6021C46.4386 15.5262 46.1766 15.3641 45.9447 15.1157ZM46.3245 14.7612C46.5006 14.9499 46.6939 15.06 46.9043 15.0915C47.1147 15.123 47.326 15.0944 47.5383 15.0058C47.7505 14.9171 47.9486 14.787 48.1325 14.6153C48.3164 14.4437 48.4604 14.2544 48.5646 14.0477C48.6688 13.8409 48.713 13.6309 48.6972 13.4177C48.6814 13.2045 48.5855 13.0036 48.4093 12.8149C48.2332 12.6262 48.0393 12.5167 47.8277 12.4863C47.6161 12.4559 47.4036 12.4856 47.1902 12.5754C46.9767 12.6651 46.7781 12.7958 46.5942 12.9675C46.4103 13.1391 46.2668 13.3278 46.1638 13.5335C46.0608 13.7391 46.0178 13.948 46.0348 14.1601C46.0518 14.3722 46.1483 14.5725 46.3245 14.7612Z" fill="white"/>
<rect x="4" y="9" width="44" height="44" rx="22" stroke="url(#paint3_linear_1162_1617)" stroke-width="2"/>
</g>
<defs>
<filter id="filter0_dddd_1162_1617" x="0.513988" y="0.743711" width="51.9249" height="61.9434" filterUnits="userSpaceOnUse" color-interpolation-filters="sRGB">
<feFlood flood-opacity="0" result="BackgroundImageFix"/>
<feColorMatrix in="SourceAlpha" type="matrix" values="0 0 0 0 0 0 0 0 0 0 0 0 0 0 0 0 0 0 127 0" result="hardAlpha"/>
<feOffset dy="0.391058"/>
<feGaussianBlur stdDeviation="0.432957"/>
<feColorMatrix type="matrix" values="0 0 0 0 0 0 0 0 0 0 0 0 0 0 0 0 0 0 0.1 0"/>
<feBlend mode="normal" in2="BackgroundImageFix" result="effect1_dropShadow_1162_1617"/>
<feColorMatrix in="SourceAlpha" type="matrix" values="0 0 0 0 0 0 0 0 0 0 0 0 0 0 0 0 0 0 127 0" result="hardAlpha"/>
<feOffset dy="1.56423"/>
<feGaussianBlur stdDeviation="0.782116"/>
<feColorMatrix type="matrix" values="0 0 0 0 0 0 0 0 0 0 0 0 0 0 0 0 0 0 0.09 0"/>
<feBlend mode="normal" in2="effect1_dropShadow_1162_1617" result="effect2_dropShadow_1162_1617"/>
<feColorMatrix in="SourceAlpha" type="matrix" values="0 0 0 0 0 0 0 0 0 0 0 0 0 0 0 0 0 0 127 0" result="hardAlpha"/>
<feOffset dy="3.49159"/>
<feGaussianBlur stdDeviation="1.04748"/>
<feColorMatrix type="matrix" values="0 0 0 0 0 0 0 0 0 0 0 0 0 0 0 0 0 0 0.05 0"/>
<feBlend mode="normal" in2="effect2_dropShadow_1162_1617" result="effect3_dropShadow_1162_1617"/>
<feColorMatrix in="SourceAlpha" type="matrix" values="0 0 0 0 0 0 0 0 0 0 0 0 0 0 0 0 0 0 127 0" result="hardAlpha"/>
<feOffset dy="6.20106"/>
<feGaussianBlur stdDeviation="1.24301"/>
<feColorMatrix type="matrix" values="0 0 0 0 0 0 0 0 0 0 0 0 0 0 0 0 0 0 0.01 0"/>
<feBlend mode="normal" in2="effect3_dropShadow_1162_1617" result="effect4_dropShadow_1162_1617"/>
<feBlend mode="normal" in="SourceGraphic" in2="effect4_dropShadow_1162_1617" result="shape"/>
</filter>
<linearGradient id="paint0_linear_1162_1617" x1="22.7179" y1="12" x2="22.7179" y2="47.5304" gradientUnits="userSpaceOnUse">
<stop stop-color="#C961DE"/>
<stop offset="1" stop-color="#2954A3"/>
</linearGradient>
<linearGradient id="paint1_linear_1162_1617" x1="37.1058" y1="26.249" x2="24.7932" y2="17.8158" gradientUnits="userSpaceOnUse">
<stop stop-color="#C961DE"/>
<stop offset="1" stop-color="#2954A3"/>
</linearGradient>
<linearGradient id="paint2_linear_1162_1617" x1="26.2976" y1="32.6259" x2="36.3992" y2="27.7363" gradientUnits="userSpaceOnUse">
<stop stop-color="#C961DE"/>
<stop offset="1" stop-color="#2954A3"/>
</linearGradient>
<linearGradient id="paint3_linear_1162_1617" x1="31.75" y1="9.4375" x2="34.05" y2="54" gradientUnits="userSpaceOnUse">
<stop stop-color="#AB71C6"/>
<stop offset="0.507276" stop-color="#8A6EE0"/>
<stop offset="1" stop-color="#6A6CF9"/>
</linearGradient>
</defs>
</svg>
